<?xml version="1.0" encoding="UTF-8" standalone="no"?>
<svg width="27px" height="15px" viewBox="0 0 27 15" version="1.1" xmlns="http://www.w3.org/2000/svg" xmlns:xlink="http://www.w3.org/1999/xlink">
    <!-- Generator: Sketch 3.8.3 (29802) - http://www.bohemiancoding.com/sketch -->
    <title>car1</title>
    <desc>Created with Sketch.</desc>
    <defs></defs>
    <g id="Page-1" stroke="none" stroke-width="1" fill="none" fill-rule="evenodd">
        <g id="Desktop" transform="translate(-273.000000, -377.000000)">
            <g id="car1" transform="translate(273.000000, 377.000000)">
                <g id="RedCarObject">
                    <rect id="RedCarCenter" x="13" y="7" width="1" height="1"></rect>
                    <path d="M0,10.6677278 L0,3.6462418 L0.34138601,2.96746259 C0.591422789,2.47031344 1.19547862,1.88418896 1.69991279,1.65406032 L2.52461718,1.27782074 L7.14705882,1.27782074 L10.1967343,0.0650843119 C10.7053404,-0.137168404 11.1176471,0.147112851 11.1176471,0.707784507 L11.1176471,1.27782074 L26.0064877,1.27782074 C26.5551894,1.27782074 27,1.72181123 27,2.28113517 L27,3.58055581 L26.2058824,5.22518916 L26.2058824,9.17255758 L27,10.7528631 L27,12.1297934 C27,12.6766285 26.5426014,13.119926 26.0082244,13.119926 L11.1454104,13.119926 L11.1454105,13.6899622 C11.1454107,14.2471685 10.7234661,14.5298983 10.211031,14.3246849 L7.20264773,13.119926 L2.38235294,13.119926 L1.68110662,12.7713533 C1.19123614,12.5278504 0.601883916,11.9279531 0.359883028,11.4212513 L0,10.6677278 Z" id="RedCarBody" fill="#965252"></path>
                    <path d="M23.2063835,4.21565296 L21.286736,3.95423329 C20.9334521,3.9061227 20.6470588,4.11603512 20.6470588,4.42253331 L20.6470588,10.5428947 C20.6470588,10.8496403 20.9309489,11.0596462 21.286736,11.0111947 L23.2063835,10.7497751 C23.5596675,10.7016645 23.8460607,10.443741 23.8460607,10.1741729 L23.8460607,4.79125514 C23.8460607,4.52146943 23.5621707,4.26410444 23.2063835,4.21565296 Z M7.93426333,2.96659851 L10.3304426,2.60385025 C10.7714255,2.53709157 11.1289127,2.82836791 11.1289127,3.25366751 L11.1289127,11.7463352 C11.1289127,12.1719781 10.77455,12.4633842 10.3304426,12.3961525 L7.93426333,12.0334042 C7.49328043,11.9666456 7.13579316,11.6087487 7.13579316,11.2346936 L7.13579316,3.76530919 C7.13579316,3.39095215 7.49015588,3.0338302 7.93426333,2.96659851 Z M12.2345323,12.475108 L11.9426494,11.9985762 C11.8889324,11.9108773 12.123306,11.8397833 12.4655205,11.8397833 L19.2990886,11.8397833 C19.6415793,11.8397833 19.8760572,11.9102559 19.8219597,11.9985762 L19.5300768,12.475108 C19.4763598,12.5628069 19.1883805,12.6339009 18.8873996,12.6339009 L12.8772095,12.6339009 C12.5759856,12.6339009 12.2886298,12.5634283 12.2345323,12.475108 Z M12.2345323,2.52489203 L11.9426494,3.00142376 C11.8889324,3.08912269 12.123306,3.16021672 12.4655205,3.16021672 L19.2990886,3.16021672 C19.6415793,3.16021672 19.8760572,3.08974407 19.8219597,3.00142376 L19.5300768,2.52489203 C19.4763598,2.4371931 19.1883805,2.36609907 18.8873996,2.36609907 L12.8772095,2.36609907 C12.5759856,2.36609907 12.2886298,2.43657171 12.2345323,2.52489203 Z M1,11 C1,11 2,13 3,13 C4,13 2,11 2,11 L1,11 Z M1,4 C1,4 2,2 3,2 C4,2 2,4 2,4 L1,4 Z" id="RedCarHighlights" fill="#D8D8D8"></path>
                </g>
            </g>
        </g>
    </g>
</svg>