<?xml version="1.0" encoding="UTF-8" standalone="no"?>
<svg width="660px" height="292px" viewBox="0 0 660 292" version="1.1" xmlns="http://www.w3.org/2000/svg" xmlns:xlink="http://www.w3.org/1999/xlink">
    <!-- Generator: Sketch 3.8.3 (29802) - http://www.bohemiancoding.com/sketch -->
    <title>SlotBot</title>
    <desc>Created with Sketch.</desc>
    <defs></defs>
    <g id="Page-1" stroke="none" stroke-width="1" fill="none" fill-rule="evenodd">
        <g id="Desktop" transform="translate(-226.000000, -327.000000)">
            <g id="SlotBot" transform="translate(247.000000, 347.000000)">
                <path d="M306.932696,31.1337458 C324.932696,54.1337454 327.338804,70.1663264 324.932696,93.1337439 C322.526588,116.101161 299.784988,130.028876 288.932696,138.133752 C278.080404,146.238627 261.932691,148.13374 247.932686,148.133742 C233.932681,148.133743 126.932689,148.133742 126.932689,148.133742 C126.932689,148.133742 74.9326904,148.133743 42.9326852,167.133743 C10.93268,186.133743 7.9326868,194.133743 1.93268666,207.133743 C-4.06731347,220.133743 4.54236248,236.571705 18.9326866,243.133757 C34.0004718,250.004734 44.9326782,252.133774 88.9326859,251.133759 C132.932693,250.133743 106.032682,251.133754 193.932686,251.133753 C281.83269,251.133752 296.281544,252.250807 329.932696,251.133757 C353.60878,250.347829 371.932678,251.133759 397.932678,251.133759 C423.932678,251.133759 437.522034,244.987278 444.932678,241.133743 C469.932678,228.133743 539.932666,238.133742 573.932666,233.133742 C607.932666,228.133742 625.932666,211.133742 615.932717,188.133753 C605.932768,165.133765 552.932666,138.133742 508.932696,138.133742 C464.932727,138.133742 395.932686,138.133746 395.932686,138.133746 L255.932681,136.133746 C255.932681,136.133746 230.929848,134.840229 209.932681,121.133746 C188.935514,107.427263 181.932681,90.1337461 178.932681,78.1337461 C175.932681,66.1337461 177.631748,43.2293904 185.932681,31.1337461 C194.233613,19.0381018 221.932666,-1.86625388 242.932681,0.133746179 C263.932696,2.13374624 288.932696,8.13374628 306.932696,31.1337458 Z" id="track1decorator" stroke="#333333" stroke-width="40"></path>
                <path d="M306.932696,31.1337458 C324.932696,54.1337454 327.338804,70.1663264 324.932696,93.1337439 C322.526588,116.101161 299.784988,130.028876 288.932696,138.133752 C278.080404,146.238627 261.932691,148.13374 247.932686,148.133742 C233.932681,148.133743 126.932689,148.133742 126.932689,148.133742 C126.932689,148.133742 74.9326904,148.133743 42.9326852,167.133743 C10.93268,186.133743 4.86537329,196.267487 1.93268666,207.133743 C-0.999999961,218 4.54236248,236.571705 18.9326866,243.133757 C34.0004718,250.004734 44.9326782,252.133774 88.9326859,251.133759 C132.932693,250.133743 106.032682,251.133754 193.932686,251.133753 C281.83269,251.133752 296.281544,252.250807 329.932696,251.133757 C353.60878,250.347829 371.932678,251.133759 397.932678,251.133759 C423.932678,251.133759 437.522034,244.987278 444.932678,241.133743 C469.932678,228.133743 539.932666,238.133742 573.932666,233.133742 C607.932666,228.133742 625.932666,211.133742 615.932717,188.133753 C605.932768,165.133765 552.932666,138.133742 508.932696,138.133742 C464.932727,138.133742 395.932686,138.133746 395.932686,138.133746 L255.932681,136.133746 C255.932681,136.133746 230.929848,134.840229 209.932681,121.133746 C188.935514,107.427263 181.932681,90.1337461 178.932681,78.1337461 C175.932681,66.1337461 177.631748,43.2293904 185.932681,31.1337461 C194.233613,19.0381018 221.932666,-1.86625388 242.932681,0.133746179 C263.932696,2.13374624 288.932696,8.13374628 306.932696,31.1337458 Z" id="track1" stroke="#6A6A6A"></path>
                <path d="M493.805848,151.135257 L426.805848,150.135257 L387.805848,150.135257 C387.805848,150.135257 377.975644,150.02185 365.805847,152.135254 C357.284677,153.615038 350.866117,156.855077 341.805847,159.135254 C333.18421,161.305042 327.226956,161.135257 311.805848,161.135257 L191.805848,161.135257 C191.805848,161.135257 125.805847,161.13525 120.805848,161.135257 C117.805847,161.135262 56.8058475,163.135257 35.8058475,195.135257 C14.8058475,227.135257 55.8058479,238.135257 78.8058475,237.135257 C101.805847,236.135257 170.805848,236.135257 170.805848,236.135257 L287.805848,235.135257 L320.805848,234.135257 C320.805848,234.135257 376.805848,237.135257 408.805848,190.135257 C440.805847,143.135257 391.805848,99.1352571 391.805848,99.1352571 C391.805848,99.1352571 362.805848,72.1352571 324.805848,70.1352571 C286.805847,68.1352571 234.805848,88.1352556 230.805847,142.135254 C226.805847,196.135252 296.805848,217.13526 306.805848,218.135257 C316.805847,219.135254 369.805848,220.135257 369.805848,220.135257 L440.805848,220.135257 C440.805848,220.135257 530.098545,220.207077 546.805848,221.135257 C564.805847,222.135254 598.160441,217.131452 596.805847,196.135254 C594.805847,165.135254 536.805847,151.135254 515.805848,151.135257 C503.805847,151.135254 493.805848,151.135257 493.805848,151.135257 Z" id="track2decorator" stroke="#333333" stroke-width="22"></path>
                <path d="M493.805848,151.135257 L426.805848,150.135257 L387.805848,150.135257 C387.805848,150.135257 377.975644,150.02185 365.805847,152.135254 C357.284677,153.615038 350.866117,156.855077 341.805847,159.135254 C333.18421,161.305042 327.226956,161.135257 311.805848,161.135257 L191.805848,161.135257 C191.805848,161.135257 125.805847,161.13525 120.805848,161.135257 C117.805847,161.135262 56.8058475,163.135257 35.8058475,195.135257 C14.8058475,227.135257 55.8058479,238.135257 78.8058475,237.135257 C101.805847,236.135257 170.805848,236.135257 170.805848,236.135257 L287.805848,235.135257 L320.805848,234.135257 C320.805848,234.135257 376.805848,237.135257 408.805848,190.135257 C440.805847,143.135257 391.805848,99.1352571 391.805848,99.1352571 C391.805848,99.1352571 362.805848,72.1352571 324.805848,70.1352571 C286.805847,68.1352571 234.805848,88.1352556 230.805847,142.135254 C226.805847,196.135252 296.805848,217.13526 306.805848,218.135257 C316.805847,219.135254 369.805848,220.135257 369.805848,220.135257 L440.805848,220.135257 C440.805848,220.135257 530.098545,220.207077 546.805848,221.135257 C564.805847,222.135254 598.160441,217.131452 596.805847,196.135254 C594.805847,165.135254 536.805847,151.135254 515.805848,151.135257 C503.805847,151.135254 493.805848,151.135257 493.805848,151.135257 Z" id="track2" stroke="#6A6A6A"></path>
            </g>
        </g>
    </g>
</svg>